PathFileType	4	(X/Y/Z)	D:\Share\Shared_Data\Ergonomics\Sit To Stand Pertubation\S3\Perturbed.trc
DataRate	CameraRate	NumFrames	NumMarkers	Units	OrigDataRate	OrigDataStartFrame	OrigNumFrames	
100	100	11	18	m	100	8574	221
Frame#	Time	R_ASIS			R_Pelvis			V_Sacral			L_Pelvis			L_ASIS			Clavical			R_Acromium			L_Acromium			Sternum			Torso			R_Thigh_Med			R_Thigh_Lat			R_Thigh			R_Shank_Med			R_Shank_Lat			R_Shank			R_Heel			R_Toe			
		X1	Y1	Z1	X2	Y2	Z2	X3	Y3	Z3	X4	Y4	Z4	X5	Y5	Z5	X6	Y6	Z6	X7	Y7	Z7	X8	Y8	Z8	X9	Y9	Z9	X10	Y10	Z10	X11	Y11	Z11	X12	Y12	Z12	X13	Y13	Z13	X14	Y14	Z14	X15	Y15	Z15	X16	Y16	Z16	X17	Y17	Z17	X18	Y18	Z18	

8574	85.73	0.38820114	0.95303149	0.16081114	0.27645398	0.94278442	0.20831464	0.17482349	0.95505115	0.019168301	0.29739941	0.95637421	-0.17965462	0.40190005	0.94939893	-0.11962434	0.30945251	1.3746399	0.027527451	0.24453406	1.4171434	0.19901825	0.25483791	1.4249126	-0.12861804	0.34710959	1.3050101	0.030960375	0.319121	1.3645029	-0.038851879	0.41690503	0.47632013	0.071411224	0.33824216	0.45533209	0.15894579	0.42325024	0.66355341	0.11987799	0.29564255	0.10472262	0.095601059	0.28070316	0.094490631	0.17759505	0.27981085	0.28292227	0.18240102	0.22293185	0.047659168	0.13341808	0.44118692	0.056095947	0.12024983
8575	85.74	0.38838	0.95291882	0.16082503	0.27648557	0.94278296	0.20815564	0.17502963	0.95536218	0.019023432	0.29752237	0.95649774	-0.1798387	0.40201031	0.94932935	-0.11974818	0.30999677	1.3748876	0.027555893	0.24557254	1.4172993	0.19917944	0.25533142	1.4251157	-0.12851421	0.34759076	1.3055183	0.030933924	0.3195473	1.364965	-0.038962776	0.41700745	0.47622693	0.07145768	0.33808102	0.45535718	0.15872237	0.4233884	0.6634765	0.12020386	0.29560562	0.10474274	0.09559536	0.28068668	0.094473045	0.17760599	0.27969205	0.28292987	0.18238545	0.22291147	0.047652557	0.13344629	0.44113358	0.056126453	0.1202505
8576	85.75	0.38852881	0.95277173	0.16083989	0.27644217	0.94272894	0.20789958	0.17519374	0.95568353	0.018804007	0.29758041	0.95660828	-0.17999162	0.40206827	0.9492254	-0.11989909	0.3105997	1.3750995	0.027561045	0.24666263	1.4173593	0.19935338	0.2557571	1.425265	-0.1284846	0.34811197	1.3059042	0.030887714	0.32000189	1.3653293	-0.039103794	0.41708582	0.47610733	0.071429321	0.33795004	0.45536487	0.15848662	0.42349042	0.66339459	0.12039865	0.29559634	0.10474448	0.095607544	0.28068253	0.094445038	0.17761287	0.27960641	0.28292795	0.182364	0.222894	0.047640041	0.13347163	0.44108856	0.056149494	0.12023968
8577	85.76	0.38866055	0.95260089	0.16084303	0.27635144	0.94262341	0.20755699	0.17530595	0.9560047	0.018548767	0.29756155	0.95668964	-0.18009775	0.40207693	0.94909833	-0.12008821	0.31124014	1.3752611	0.027542116	0.24777899	1.4173416	0.19951913	0.25610956	1.4253794	-0.12852345	0.34865787	1.3061394	0.030825113	0.32047556	1.3655759	-0.039260002	0.41712018	0.47595685	0.071313896	0.33785791	0.45535507	0.15825865	0.42355933	0.66331042	0.12043274	0.29560025	0.10473266	0.095633263	0.28068777	0.094402008	0.17761124	0.27956021	0.2829202	0.1823414	0.22287723	0.047622261	0.13349406	0.44104932	0.056167969	0.12021864
8578	85.77	0.38878671	0.95241724	0.16081848	0.27624496	0.94247778	0.20715202	0.17535818	0.95631366	0.018288721	0.29746274	0.95672968	-0.18014861	0.40204077	0.94895947	-0.12032298	0.31189618	1.375363	0.027498898	0.24889723	1.4172697	0.19965923	0.25639328	1.4254802	-0.12861906	0.34921414	1.3062119	0.030749352	0.32096213	1.3656964	-0.039415237	0.41709164	0.47577686	0.071107155	0.33780481	0.45532993	0.15805321	0.42359732	0.66322638	0.12029713	0.29560309	0.10471323	0.095663826	0.28069894	0.094340492	0.17759541	0.27955234	0.2829104	0.18231998	0.22285945	0.047599651	0.13351402	0.44101315	0.056185669	0.12018911
8579	85.78	0.38891629	0.9522309	0.16074976	0.27615381	0.94231042	0.20671817	0.17534714	0.95660028	0.018048056	0.29729099	0.9567215	-0.18014313	0.40196609	0.94881964	-0.12060616	0.31254959	1.3754019	0.027434242	0.24999493	1.4171678	0.199763	0.25662482	1.4255894	-0.12875546	0.34976868	1.3061256	0.030662399	0.32145908	1.3656963	-0.039553879	0.41698727	0.47557376	0.070813454	0.3377869	0.45529343	0.15787975	0.42360703	0.66314447	0.12000247	0.29559406	0.10469167	0.095688271	0.28071149	0.094261414	0.17756001	0.27957642	0.28290189	0.18229883	0.2228399	0.047572365	0.13353131	0.44097818	0.056205917	0.1201528
8580	85.79	0.38905481	0.95205042	0.16062274	0.27610443	0.94214386	0.20629131	0.17527446	0.95685858	0.017843868	0.29706244	0.95666547	-0.18008858	0.40186157	0.94869086	-0.12093555	0.31318576	1.3753802	0.027353975	0.25105179	1.4170593	0.19982561	0.25683594	1.4257229	-0.12891063	0.35031226	1.3058975	0.030564905	0.32196503	1.365592	-0.039663456	0.41680334	0.4753576	0.070444931	0.33779907	0.45525027	0.15774254	0.4235928	0.66306671	0.1195753	0.29556848	0.10467158	0.095697029	0.28072079	0.094172379	0.17750447	0.2796232	0.28289627	0.18227379	0.2228188	0.047540653	0.13354494	0.44094376	0.056230091	0.12011129
8581	85.8	0.38920367	0.95188269	0.16042821	0.2761163	0.94200006	0.20590225	0.17514687	0.95708594	0.017685518	0.29679974	0.9565697	-0.18000272	0.40173944	0.94858636	-0.12130442	0.31379269	1.3753069	0.027265171	0.2520498	1.416963	0.19984601	0.25707294	1.425891	-0.12905476	0.35083768	1.3055529	0.030457167	0.32247733	1.3654065	-0.039736568	0.41654611	0.4751405	0.07001796	0.33783533	0.45520612	0.15763863	0.423561	0.66299506	0.11905209	0.29552936	0.10465433	0.09568663	0.28072403	0.094088799	0.17743866	0.27968307	0.28289404	0.18223906	0.22279733	0.047504978	0.13355309	0.44091052	0.05625705	0.12006616
8582	85.81	0.38936078	0.95173297	0.16016312	0.27620062	0.94189703	0.20557214	0.17497604	0.95728168	0.017574764	0.29652728	0.95645221	-0.17991875	0.40161526	0.94852069	-0.12170222	0.314362	1.3751929	0.027174437	0.25297508	1.4168927	0.19982642	0.25738507	1.4260959	-0.12915683	0.35133856	1.3051212	0.030340361	0.32299109	1.3651658	-0.039771004	0.41623044	0.47493481	0.069549271	0.33788873	0.45516696	0.15755663	0.42352048	0.66293121	0.11847276	0.2954855	0.10463977	0.095660072	0.28072046	0.094030388	0.17738216	0.2797478	0.28289481	0.182189	0.2227773	0.047465862	0.13355336	0.44088013	0.056283714	0.12001903
8583	85.82	0.38952209	0.95160419	0.15983038	0.27635931	0.94184497	0.20531146	0.17477797	0.95744427	0.017507299	0.29626297	0.9563432	-0.17989365	0.40150656	0.94850909	-0.12211497	0.3148894	1.3750498	0.027086748	0.25381938	1.4168556	0.19977347	0.25780731	1.4263346	-0.12919644	0.3518092	1.304634	0.030217226	0.32350043	1.3648939	-0.039768959	0.41587756	0.47475043	0.069054802	0.33795331	0.45513742	0.15748151	0.42348132	0.66287646	0.11787531	0.2954462	0.10462741	0.09562233	0.28071207	0.094012993	0.17735384	0.27981137	0.28289844	0.18212001	0.22276089	0.047424084	0.13354352	0.44085461	0.056306366	0.11997155
8584	85.83	0.3896828	0.95149744	0.15943788	0.27658466	0.94184534	0.20512115	0.17457024	0.95756982	0.017475019	0.29601273	0.95628094	-0.17999823	0.40142816	0.94856488	-0.1225258	0.31537561	1.3748876	0.027005234	0.25458011	1.4168523	0.19969713	0.25835043	1.4266001	-0.12916989	0.35224426	1.3041234	0.03009174	0.32399896	1.364613	-0.039736511	0.41551187	0.4745939	0.068548149	0.33802557	0.45511945	0.15739717	0.42345251	0.66283179	0.1172923	0.29541647	0.10461728	0.095576302	0.28070169	0.09404277	0.17736292	0.27987036	0.28290521	0.18203084	0.22274994	0.047381371	0.1335228	0.44083563	0.05632206	0.11992552
